<svg xmlns="http://www.w3.org/2000/svg" xmlns:xlink="http://www.w3.org/1999/xlink" width="994.378" height="994.267" viewBox="0 0 994.378 994.267"><defs><clipPath id="a"><rect width="994.378" height="994.267" fill="none"/></clipPath></defs><g transform="translate(497.189 497.134)"><g transform="translate(-497.189 -497.133)" clip-path="url(#a)"><path d="M913.693,478.746c0,252.309-204.537,456.846-456.846,456.846S0,731.055,0,478.746,204.537,21.9,456.846,21.9,913.693,226.437,913.693,478.746" transform="translate(0 58.785)" fill="#fed501"/><path d="M443.967,927.75a464.583,464.583,0,0,1-75.527-12.526l4.421-17.684a446.54,446.54,0,0,0,72.58,12.158Zm76.632,0-1.474-18.421a446.52,446.52,0,0,0,72.58-12.158l4.421,17.684A465.305,465.305,0,0,1,520.6,927.381M295.86,890.539a464.571,464.571,0,0,1-67.422-36.474l9.947-15.474a446.169,446.169,0,0,0,64.843,35Zm373.214-.368-7.369-16.948a446.527,446.527,0,0,0,64.843-35L736.5,853.7a465.308,465.308,0,0,1-67.422,36.474M167.649,806.906A469.016,469.016,0,0,1,115.7,750.538l14.369-11.421a449.842,449.842,0,0,0,50.106,54.159Zm629.269-.368-12.526-13.632a449.841,449.841,0,0,0,49.737-54.158L848.5,750.169a469.01,469.01,0,0,1-51.948,56.369M73.7,686.063a463.483,463.483,0,0,1-30.948-70l17.316-5.895A444.318,444.318,0,0,0,89.911,677.59Zm817.165-.368-16.211-8.842a445.432,445.432,0,0,0,29.474-67.422l17.316,5.895A462.748,462.748,0,0,1,890.5,685.695M23.963,541.641A469,469,0,0,1,17.7,465.377H36.121a450.958,450.958,0,0,0,6.263,73.317Zm916.64-.368-18.053-2.947a450.951,450.951,0,0,0,5.895-73.317V463.9h18.421v1.105a469.353,469.353,0,0,1-6.263,76.632M41.648,391.692l-18.053-2.947a462.735,462.735,0,0,1,18.79-74.422L59.7,320.218a444.692,444.692,0,0,0-18.053,71.474m880.166-1.474a444.311,444.311,0,0,0-18.053-71.474l17.316-5.895a462.741,462.741,0,0,1,18.79,74.422ZM89.174,252.8l-16.211-8.842a467.168,467.168,0,0,1,42-64.106l14.368,11.421A447.639,447.639,0,0,0,89.174,252.8m784.744-1.474A448.372,448.372,0,0,0,833.392,189.8l14.369-11.421a466.419,466.419,0,0,1,42,64.106Zm-694.48-114.58-12.526-13.632a467.528,467.528,0,0,1,60.422-47.158l9.947,15.474a449.106,449.106,0,0,0-57.843,45.316m604.216-1.105a449.483,449.483,0,0,0-58.211-45.316l9.947-15.474a467.519,467.519,0,0,1,60.79,47.527ZM302.124,56.057,294.755,39.11a462,462,0,0,1,72.58-25.053l4.421,17.684a444.321,444.321,0,0,0-69.632,23.948M660.6,54.952A443.944,443.944,0,0,0,590.969,31l4.421-18.053a462.374,462.374,0,0,1,72.58,24.684Zm-216.265-35L442.862,1.531a473.794,473.794,0,0,1,76.632,0L518.02,19.952a455.743,455.743,0,0,0-73.685,0" transform="translate(47.511 -0.057)"/></g></g></svg>