<svg xmlns="http://www.w3.org/2000/svg" xmlns:xlink="http://www.w3.org/1999/xlink" width="1220.7" height="1204.248" viewBox="0 0 1220.7 1204.248"><defs><clipPath id="a"><rect width="1220.7" height="1204.248" fill="none"/></clipPath></defs><g transform="translate(610.35 602.124)"><g transform="translate(-610.35 -602.124)" clip-path="url(#a)"><path d="M24.622,20.908c24.3-4.859,25.684,56.575,25.337,69.417s20.478,13.536,20.825,0C71.479,60.475,64.537-8.248,19.069.777,5.879,3.553,11.433,23.684,24.622,20.908" transform="translate(28.482 -0.082)"/><path d="M72.727,36.413a577.9,577.9,0,0,0,99.614-12.5c13.189-2.777,7.636-22.908-5.553-19.784a544.571,544.571,0,0,1-94.06,11.454c-13.536.347-13.536,21.172,0,20.825" transform="translate(154.614 9.403)"/><path d="M138.169,22.631a121.48,121.48,0,0,1,70.805,41.65c8.677,10.413,23.255-4.512,14.578-14.578a139.181,139.181,0,0,0-79.83-46.857C130.533.417,124.979,20.2,138.169,22.978" transform="translate(322.761 6.525)"/><path d="M207.818,73.8a64.905,64.905,0,0,1,51.369-51.022C272.376,20,266.822.217,253.633,2.647a85.036,85.036,0,0,0-65.946,65.6c-2.777,13.189,17.354,18.743,20.131,5.553" transform="translate(463.099 6.03)"/><path d="M264.415,33.224a343.962,343.962,0,0,1,122.174-8.677c13.189,1.388,13.189-19.437,0-20.825a360.621,360.621,0,0,0-127.727,9.371c-12.842,3.471-7.636,23.255,5.553,20.131" transform="translate(621.347 4.262)"/><path d="M364.905,16.844c11.454,35.75-26.031,57.616-52.41,71.847-11.8,6.248-1.388,24.3,10.413,18.048,35.056-19.09,76.359-49.633,61.781-95.449-4.165-12.842-24.3-7.289-20.131,5.553" transform="translate(759.305 9.881)"/><path d="M375.863,37.491a204.085,204.085,0,0,1-39.568,71.847c-8.677,10.066,5.9,24.99,14.578,14.578a230.12,230.12,0,0,0,44.774-80.871c4.165-12.842-15.966-18.4-20.131-5.553" transform="translate(824.359 74.618)"/><path d="M334.855,112.859a118.357,118.357,0,0,1,44.427,35.056c7.983,10.413,26.031,0,18.048-10.413a139.529,139.529,0,0,0-52.063-42.344c-12.148-5.553-22.561,12.148-10.413,18.048" transform="translate(813.998 232.491)"/><path d="M375.785,145.591a142.306,142.306,0,0,1-41.3,70.805c-9.718,9.371,4.859,23.949,14.578,14.578a162.436,162.436,0,0,0,46.857-79.83c3.124-12.842-17.007-18.4-20.131-5.553" transform="translate(818.537 341.717)"/><path d="M331.059,208.65a195.755,195.755,0,0,1,26.726,70.111c2.43,13.189,22.56,7.636,20.131-5.553a212.07,212.07,0,0,0-29.155-74.971c-6.942-11.454-24.99-1.041-18.048,10.413" transform="translate(813.283 477.538)"/><path d="M418.756,303.515l-82.606-53.1c-11.454-7.289-21.866,10.76-10.413,18.048l82.606,53.1c11.454,7.289,21.866-10.76,10.413-18.048" transform="translate(792.573 614.526)"/><path d="M388.213,288.406A147.164,147.164,0,0,1,322.614,337c-12.5,4.512-6.942,24.643,5.553,20.131a166.254,166.254,0,0,0,74.623-53.8c8.33-10.413-6.595-25.337-14.578-14.578" transform="translate(779.73 704.258)"/><path d="M339.033,343.617A103.08,103.08,0,0,1,349.1,380.756c1.041,13.189,21.866,13.536,20.825,0A130.855,130.855,0,0,0,357.081,333.2c-5.9-12.148-23.949-1.388-18.048,10.413" transform="translate(834.811 810.095)"/><path d="M377.436,408.84a1100.984,1100.984,0,0,0-75.665-98.225c-8.677-10.066-23.6,4.512-14.578,14.578a1053.37,1053.37,0,0,1,72.194,94.06c7.636,11.107,25.684.694,18.048-10.413" transform="translate(702.695 759.103)"/><path d="M329.668,328.866q-37.832,13.189-76.706,23.255c-12.842,3.471-7.636,23.255,5.553,20.131Q297.389,362.186,335.221,349c12.5-4.512,7.289-24.643-5.553-20.131" transform="translate(606.769 810.963)"/><path d="M220.2,392.443l10.76-83.3c1.735-13.189-19.09-13.189-20.825,0l-10.76,83.3c-1.735,13.189,19.09,13.189,20.825,0" transform="translate(492.369 739.404)"/><path d="M168.674,338.708a297.456,297.456,0,0,1,44.774,65.6c5.9,12.148,23.949,1.388,18.048-10.413a317.929,317.929,0,0,0-47.9-70.111c-9.024-10.065-23.6,4.859-14.578,14.578" transform="translate(410.612 791.75)"/><path d="M182.825,373.223a51.716,51.716,0,0,1-40.609-37.832c-3.471-12.842-23.6-7.289-20.131,5.553a72.194,72.194,0,0,0,55.187,52.41c13.189,2.43,18.743-17.354,5.553-20.131" transform="translate(300.665 810.686)"/><path d="M85.622,397.455a137.793,137.793,0,0,0,96.49-64.905c6.942-11.454-11.107-21.866-18.048-10.412a118.009,118.009,0,0,1-83.995,55.534c-13.189,2.083-7.636,22.214,5.553,20.131" transform="translate(179.204 783.677)"/><path d="M53.325,388.8V326.327c0-13.536-20.825-13.536-20.825,0V388.8c0,13.536,20.825,13.536,20.825,0" transform="translate(80.303 781.223)"/><path d="M19.512,399.437a883.013,883.013,0,0,1,66.294-90.243c8.677-10.065-6.248-24.99-14.578-14.577A926.343,926.343,0,0,0,1.811,389.025c-7.289,11.454,10.76,21.866,18.048,10.413" transform="translate(0.272 719.22)"/><path d="M15.537,271.759a256.155,256.155,0,0,0,64.905,29.155c12.842,3.818,18.4-16.313,5.553-20.131A235.324,235.324,0,0,1,25.95,253.711c-11.454-7.289-21.866,10.76-10.413,18.049" transform="translate(26.113 622.68)"/><path d="M55.628,312.442A95.8,95.8,0,0,1,82.7,343.68c6.595,11.8,24.643,1.388,18.048-10.412A119.4,119.4,0,0,0,66.04,294.394a10.413,10.413,0,0,0-14.23,3.818,10.76,10.76,0,0,0,3.818,14.23" transform="translate(124.857 723.955)"/><path d="M57.213,284.32a335.633,335.633,0,0,1-30.2-73.929c-3.471-12.842-23.6-7.289-20.131,5.553a359.581,359.581,0,0,0,32.279,78.788c6.595,11.8,24.643,1.388,18.048-10.413" transform="translate(16.023 501.829)"/><path d="M30.635,196.662a290.852,290.852,0,0,0,68.723-3.124c13.189-2.083,7.636-22.213-5.553-20.131a267.95,267.95,0,0,1-63.17,2.43c-13.536-1.041-13.189,19.784,0,20.825" transform="translate(50.93 428.092)"/><path d="M81.013,205.265l-47.551-66.64c-7.636-10.76-25.684-.347-18.048,10.413l47.551,66.64c7.636,10.76,25.684.347,18.048-10.413" transform="translate(33.526 331.329)"/><path d="M23.967,142.992a158.965,158.965,0,0,1,41.65-37.832c11.454-7.289.694-25.337-10.413-18.048A187.078,187.078,0,0,0,5.919,132.579c-7.983,10.76,10.065,21.172,18.048,10.413" transform="translate(9.7 211.036)"/><path d="M16.864,69.313a181.526,181.526,0,0,1,50.674,32.279c10.065,9.024,24.643-5.553,14.578-14.578a197.491,197.491,0,0,0-54.84-35.75C15.129,46.058,4.369,64.106,16.864,69.313" transform="translate(27.91 124.361)"/><path d="M74.165,82.063a39.915,39.915,0,0,1,46.162-23.255c12.842,3.124,18.4-17.007,5.553-20.131A61.087,61.087,0,0,0,54.034,76.509C49.175,89,69.306,94.558,74.165,82.063" transform="translate(131.656 91.133)"/><path d="M139.037,47.669a114.191,114.191,0,0,1-21.866,47.551c-8.33,10.413,6.248,25.337,14.578,14.578a136.752,136.752,0,0,0,27.073-56.575c2.777-13.189-17.354-18.743-20.131-5.553" transform="translate(283.366 99.149)"/><path d="M169.542,101.509A215.194,215.194,0,0,0,258.049,71.66c11.454-6.942,1.041-24.99-10.413-18.048a190.55,190.55,0,0,1-78.094,27.073c-13.189,1.388-13.189,22.213,0,20.825" transform="translate(394.472 128.608)"/><path d="M235.542,66l76.359-8.33c13.189-1.388,13.189-22.213,0-20.825l-76.359,8.33c-13.189,1.388-13.189,22.213,0,20.825" transform="translate(557.549 90.88)"/><path d="M266.746,57.767A223.522,223.522,0,0,0,316.38,126.49c9.718,9.371,24.643-5.553,14.578-14.578a207.9,207.9,0,0,1-46.162-64.558c-5.553-12.148-23.6-1.735-18.048,10.413" transform="translate(656.501 103.627)"/><path d="M326.6,84.142a130.5,130.5,0,0,1-26.379,67.682c-7.983,10.76,10.066,21.172,18.049,10.413a150.289,150.289,0,0,0,29.155-78.094c1.041-13.189-19.784-13.189-20.825,0" transform="translate(736.873 183.461)"/><path d="M332.258,129.382a58.309,58.309,0,0,1-17.007,44.08c-9.371,9.718,5.206,24.3,14.578,14.578a79.482,79.482,0,0,0,23.255-59c-.347-13.189-21.172-13.536-20.825,0" transform="translate(771.475 294.062)"/><path d="M291.917,182.472A181.874,181.874,0,0,1,342.245,250.5c5.206,12.148,25.337,6.942,20.131-5.553a203.392,203.392,0,0,0-55.881-77.053c-10.065-8.677-24.99,5.9-14.578,14.578" transform="translate(712.548 408.267)"/><path d="M302.313,225.142a127.379,127.379,0,0,1-6.248,56.228c-4.512,12.842,15.619,18.048,20.131,5.553a141.612,141.612,0,0,0,6.942-61.781c-1.388-13.189-22.213-13.189-20.825,0" transform="translate(729.919 531.852)"/><path d="M287.737,309.344a83.3,83.3,0,0,0,90.242-23.949c8.677-10.065-5.9-24.99-14.578-14.578a63.169,63.169,0,0,1-69.764,18.743c-12.842-4.512-18.049,15.619-5.553,20.131" transform="translate(694.168 660.413)"/><path d="M315.667,291.68c-2.777,10.413-26.726,16.313-35.4,20.131l-40.609,17.7c-12.148,5.206-1.735,23.255,10.413,18.049l58.31-25.337c12.5-5.553,23.6-10.76,27.42-24.99s-16.66-18.4-20.131-5.553" transform="translate(578.773 701.679)"/><path d="M283.175,298.074a206.508,206.508,0,0,0,2.43-54.84c-1.389-13.189-22.214-13.536-20.825,0a186.045,186.045,0,0,1-1.735,49.633c-2.43,13.189,17.7,18.743,20.131,5.553" transform="translate(649.444 576.234)"/><path d="M280.844,190.967a63.517,63.517,0,0,1-21.519,75.318c-10.76,7.636-.347,25.684,10.412,18.048a84.342,84.342,0,0,0,31.238-98.919c-4.859-12.5-24.99-6.942-20.131,5.553" transform="translate(629.562 440.728)"/><path d="M281.094,124.145a84.689,84.689,0,0,1-7.983,71.847c-6.942,11.454,11.107,21.866,18.049,10.413a105.167,105.167,0,0,0,10.065-87.813c-4.165-12.842-24.3-7.289-20.131,5.553" transform="translate(670.961 275.004)"/><path d="M279.671,138.195a134.322,134.322,0,0,0-12.148-60.74c-5.553-12.148-23.255-1.735-18.049,10.413a111.067,111.067,0,0,1,9.024,50.327c-.694,13.536,20.131,13.536,20.825,0" transform="translate(614.075 178)"/><path d="M257.214,72.337a46.856,46.856,0,0,1-48.592,20.825c-13.189-2.777-18.743,17.354-5.553,20.131A68.376,68.376,0,0,0,275.262,82.75c7.289-11.454-10.76-21.866-18.048-10.413" transform="translate(483.12 166.458)"/><path d="M123.05,97.5a90.936,90.936,0,0,0,55.534,20.825c13.536.347,13.536-20.478,0-20.825a67.681,67.681,0,0,1-40.956-14.925c-10.413-8.33-24.99,6.248-14.578,14.578" transform="translate(295.188 197.875)"/><path d="M146.942,75a188.12,188.12,0,0,1-77.4,7.983c-13.189-1.388-13.189,19.437,0,20.825A202.7,202.7,0,0,0,152.5,95.132c12.842-4.165,7.289-24.3-5.553-20.131" transform="translate(147.387 183.924)"/><path d="M59.942,115.122A41.65,41.65,0,0,1,44.67,154.343c-10.413,7.983,0,26.031,10.413,18.048a63.517,63.517,0,0,0,24.99-62.822c-2.083-13.189-22.213-7.636-20.131,5.553" transform="translate(99.717 252.094)"/><path d="M70.5,150.327v79.83c0,13.536,20.825,13.536,20.825,0v-79.83c0-13.536-20.825-13.536-20.825,0" transform="translate(174.195 346.352)"/><path d="M73.349,211.563l-9.371,32.973c-1.388,5.553-4.859,27.073-12.842,28.114s-13.189,22.561,0,20.825,21.172-9.718,26.378-22.213,10.76-36.444,15.619-54.145-16.66-18.4-20.131-5.553" transform="translate(106.442 501.004)"/><path d="M61.5,257.327a359.924,359.924,0,0,0,9.371,82.953C74,353.47,94.128,347.917,91,334.727a334.939,334.939,0,0,1-8.677-77.4c0-13.536-20.825-13.536-20.825,0" transform="translate(151.956 610.734)"/><path d="M103.014,301.966a106.208,106.208,0,0,1,59.352,59c4.859,12.148,24.99,6.942,20.131-5.553a129.463,129.463,0,0,0-73.929-73.582c-12.5-4.859-18.048,15.272-5.553,20.131" transform="translate(237.13 694.517)"/><path d="M151.16,325.844l79.483-32.279c12.148-4.859,6.942-24.99-5.553-20.131l-79.483,32.279c-12.148,4.859-6.942,24.99,5.553,20.131" transform="translate(342.743 673.762)"/><path d="M245.817,252.422l-45.121,24.3c-11.8,6.247-1.388,24.3,10.413,18.049l45.121-24.3c11.8-6.248,1.388-24.3-10.413-18.048" transform="translate(483.063 620.498)"/><path d="M258.673,315.967a292.6,292.6,0,0,0-11.8-68.376c-3.818-12.842-23.949-7.289-20.131,5.554a268.993,268.993,0,0,1,11.107,62.822c.694,13.189,21.519,13.536,20.825,0" transform="translate(559.061 593.744)"/><path d="M223.929,285.4c39.915,9.718,41.65-62.475,40.956-86.077-.347-13.536-21.172-13.536-20.825,0,0,7.289-2.083,69.07-14.578,65.946s-18.743,17.007-5.553,20.131" transform="translate(535.148 467.424)"/><path d="M241.622,171.761a48.592,48.592,0,0,1,34.014,4.512c11.8,6.248,22.56-11.8,10.412-18.048a71.5,71.5,0,0,0-49.98-6.595c-13.189,3.124-7.636,22.908,5.553,20.131" transform="translate(564.658 370.04)"/><path d="M299.872,186.378A170.419,170.419,0,0,1,243.3,108.284c-4.512-12.5-24.643-7.289-20.131,5.553a195.41,195.41,0,0,0,65.946,90.589c10.76,8.33,20.825-10.065,10.412-18.048" transform="translate(549.794 249.908)"/><path d="M256.628,152.661a190.9,190.9,0,0,1-71.5-46.509c-9.371-9.718-23.949,5.206-14.578,14.578a214.5,214.5,0,0,0,80.871,51.716c12.5,4.512,18.048-15.619,5.553-20.131" transform="translate(413.942 254.471)"/><path d="M97.791,127.968a59.352,59.352,0,0,1,43.386,43.039c3.471,12.842,23.6,7.289,20.131-5.553a80.524,80.524,0,0,0-57.963-57.616c-12.842-3.124-18.4,16.66-5.553,20.131" transform="translate(223.61 265.627)"/><path d="M98.254,265.811c16.66.347,24.643-13.189,30.544-26.726a268.991,268.991,0,0,0,18.4-63.864c2.083-13.189-18.048-18.743-20.131-5.553a270.735,270.735,0,0,1-8.677,37.485c-2.43,7.983-9.718,37.832-20.478,37.832s-13.536,20.825,0,20.825" transform="translate(219.329 400.593)"/><path d="M87.221,234.161a97.184,97.184,0,0,1,25.337,68.376c-.347,13.536,20.478,13.536,20.825,0A118.7,118.7,0,0,0,101.8,219.583c-9.024-10.065-23.6,4.859-14.578,14.578" transform="translate(208.496 534.287)"/><path d="M123.789,273.773a112.457,112.457,0,0,1,56.922,23.6c10.76,8.33,20.825-10.065,10.413-18.048a132.239,132.239,0,0,0-67.682-26.379c-13.189-1.388-13.189,19.437,0,20.825" transform="translate(280.566 624.832)"/><path d="M178.97,288.7a82.953,82.953,0,0,1,42-57.616c11.8-6.595,1.388-24.3-10.413-18.048a103.084,103.084,0,0,0-51.369,70.111c-2.777,13.189,17.354,18.743,20.131,5.553" transform="translate(392.679 523.133)"/><path d="M234.677,239.418a237.756,237.756,0,0,0-24.3-87.813c-5.9-12.148-23.949-1.388-18.048,10.413a209.987,209.987,0,0,1,21.519,77.4c1.041,13.189,21.866,13.536,20.825,0" transform="translate(472.336 361.388)"/><path d="M211.946,163.212a344.3,344.3,0,0,1-53.451-36.444c-10.065-8.677-24.99,6.247-14.578,14.578a373.121,373.121,0,0,0,57.616,39.915c11.8,6.595,22.213-11.454,10.412-18.049" transform="translate(346.862 306.742)"/><path d="M127.734,157.222a92.325,92.325,0,0,0,43.386,58.31c11.454,6.942,22.213-11.107,10.413-18.048a71.5,71.5,0,0,1-33.667-45.815c-3.124-13.189-23.255-7.636-20.131,5.553" transform="translate(314.801 356.118)"/><path d="M181.967,174.044a82.259,82.259,0,0,1-11.454,72.541C162.878,257.692,180.926,268.1,188.562,257A102.39,102.39,0,0,0,202.1,168.491c-3.818-12.842-23.949-7.289-20.131,5.553" transform="translate(416.755 398.3)"/><path d="M128.715,255.506a124.256,124.256,0,0,0,58.31-53.8c6.595-11.8-11.454-22.213-18.048-10.413A106.209,106.209,0,0,1,117.955,237.8c-12.148,5.553-1.735,23.255,10.413,18.049" transform="translate(278.07 459.837)"/><path d="M159.814,219.235a58.658,58.658,0,0,1-20.131,41.3c-10.065,9.024,4.859,23.6,14.578,14.578a79.83,79.83,0,0,0,26.031-55.881c.694-13.536-20.131-13.189-20.825,0" transform="translate(336.865 516.934)"/></g></g></svg>