<svg xmlns="http://www.w3.org/2000/svg" xmlns:xlink="http://www.w3.org/1999/xlink" width="1075.71" height="511.17" viewBox="0 0 1075.71 511.17"><defs><clipPath id="a"><rect width="1075.71" height="511.17" fill="none"/></clipPath></defs><g transform="translate(537.855 255.585) rotate(180)"><g transform="translate(-537.855 -255.585)" clip-path="url(#a)"><path d="M14.257,0A14.257,14.257,0,1,0,28.515,14.257,14.257,14.257,0,0,0,14.257,0"/><path d="M48.157,0A14.257,14.257,0,1,0,62.415,14.257,14.257,14.257,0,0,0,48.157,0" transform="translate(46.654)"/><path d="M82.057,0A14.257,14.257,0,1,0,96.315,14.257,14.257,14.257,0,0,0,82.057,0" transform="translate(93.307)"/><path d="M115.957,0a14.257,14.257,0,1,0,14.257,14.257A14.257,14.257,0,0,0,115.957,0" transform="translate(139.96)"/><path d="M149.857,0a14.257,14.257,0,1,0,14.257,14.257A14.257,14.257,0,0,0,149.857,0" transform="translate(186.614)"/><path d="M183.757,0a14.257,14.257,0,1,0,14.257,14.257A14.257,14.257,0,0,0,183.757,0" transform="translate(233.267)"/><path d="M217.657,0a14.257,14.257,0,1,0,14.257,14.257A14.257,14.257,0,0,0,217.657,0" transform="translate(279.921)"/><path d="M14.257,33.9A14.257,14.257,0,1,0,28.515,48.157,14.257,14.257,0,0,0,14.257,33.9" transform="translate(0 46.654)"/><path d="M48.157,33.9A14.257,14.257,0,1,0,62.415,48.157,14.257,14.257,0,0,0,48.157,33.9" transform="translate(46.654 46.654)"/><path d="M82.057,33.9A14.257,14.257,0,1,0,96.315,48.157,14.257,14.257,0,0,0,82.057,33.9" transform="translate(93.307 46.654)"/><path d="M115.957,33.9a14.257,14.257,0,1,0,14.257,14.257A14.257,14.257,0,0,0,115.957,33.9" transform="translate(139.96 46.654)"/><path d="M149.857,33.9a14.257,14.257,0,1,0,14.257,14.257A14.257,14.257,0,0,0,149.857,33.9" transform="translate(186.614 46.654)"/><path d="M183.757,33.9a14.257,14.257,0,1,0,14.257,14.257A14.257,14.257,0,0,0,183.757,33.9" transform="translate(233.267 46.654)"/><path d="M217.657,33.9a14.257,14.257,0,1,0,14.257,14.257A14.257,14.257,0,0,0,217.657,33.9" transform="translate(279.921 46.654)"/><path d="M14.257,67.6A14.257,14.257,0,1,0,28.515,81.857,14.257,14.257,0,0,0,14.257,67.6" transform="translate(0 93.032)"/><path d="M48.157,67.6A14.257,14.257,0,1,0,62.415,81.857,14.257,14.257,0,0,0,48.157,67.6" transform="translate(46.654 93.032)"/><path d="M82.057,67.6A14.257,14.257,0,1,0,96.315,81.857,14.257,14.257,0,0,0,82.057,67.6" transform="translate(93.307 93.032)"/><path d="M115.957,67.6a14.257,14.257,0,1,0,14.257,14.257A14.257,14.257,0,0,0,115.957,67.6" transform="translate(139.96 93.032)"/><path d="M149.857,67.6a14.257,14.257,0,1,0,14.257,14.257A14.257,14.257,0,0,0,149.857,67.6" transform="translate(186.614 93.032)"/><path d="M183.757,67.6a14.257,14.257,0,1,0,14.257,14.257A14.257,14.257,0,0,0,183.757,67.6" transform="translate(233.267 93.032)"/><path d="M217.657,67.6a14.257,14.257,0,1,0,14.257,14.257A14.257,14.257,0,0,0,217.657,67.6" transform="translate(279.921 93.032)"/><path d="M14.257,101.5a14.257,14.257,0,1,0,14.257,14.257A14.257,14.257,0,0,0,14.257,101.5" transform="translate(0 139.685)"/><path d="M48.157,101.5a14.257,14.257,0,1,0,14.257,14.257A14.257,14.257,0,0,0,48.157,101.5" transform="translate(46.654 139.685)"/><path d="M82.057,101.5a14.257,14.257,0,1,0,14.257,14.257A14.257,14.257,0,0,0,82.057,101.5" transform="translate(93.307 139.685)"/><path d="M115.957,101.5a14.257,14.257,0,1,0,14.257,14.257A14.257,14.257,0,0,0,115.957,101.5" transform="translate(139.96 139.685)"/><path d="M149.857,101.5a14.257,14.257,0,1,0,14.257,14.257A14.257,14.257,0,0,0,149.857,101.5" transform="translate(186.614 139.685)"/><path d="M183.757,101.5a14.257,14.257,0,1,0,14.257,14.257A14.257,14.257,0,0,0,183.757,101.5" transform="translate(233.267 139.685)"/><path d="M217.657,101.5a14.257,14.257,0,1,0,14.257,14.257A14.257,14.257,0,0,0,217.657,101.5" transform="translate(279.921 139.685)"/><path d="M14.257,135.4a14.257,14.257,0,1,0,14.257,14.257A14.257,14.257,0,0,0,14.257,135.4" transform="translate(0 186.339)"/><path d="M48.157,135.4a14.257,14.257,0,1,0,14.257,14.257A14.257,14.257,0,0,0,48.157,135.4" transform="translate(46.654 186.339)"/><path d="M82.057,135.4a14.257,14.257,0,1,0,14.257,14.257A14.257,14.257,0,0,0,82.057,135.4" transform="translate(93.307 186.339)"/><path d="M115.957,135.4a14.257,14.257,0,1,0,14.257,14.257A14.257,14.257,0,0,0,115.957,135.4" transform="translate(139.96 186.339)"/><path d="M149.857,135.4a14.257,14.257,0,1,0,14.257,14.257A14.257,14.257,0,0,0,149.857,135.4" transform="translate(186.614 186.339)"/><path d="M183.757,135.4a14.257,14.257,0,1,0,14.257,14.257A14.257,14.257,0,0,0,183.757,135.4" transform="translate(233.267 186.339)"/><path d="M217.657,135.4a14.257,14.257,0,1,0,14.257,14.257A14.257,14.257,0,0,0,217.657,135.4" transform="translate(279.921 186.339)"/><path d="M14.257,169.1a14.257,14.257,0,1,0,14.257,14.257A14.257,14.257,0,0,0,14.257,169.1" transform="translate(0 232.717)"/><path d="M48.157,169.1a14.257,14.257,0,1,0,14.257,14.257A14.257,14.257,0,0,0,48.157,169.1" transform="translate(46.654 232.717)"/><path d="M82.057,169.1a14.257,14.257,0,1,0,14.257,14.257A14.257,14.257,0,0,0,82.057,169.1" transform="translate(93.307 232.717)"/><path d="M115.957,169.1a14.257,14.257,0,1,0,14.257,14.257A14.257,14.257,0,0,0,115.957,169.1" transform="translate(139.96 232.717)"/><path d="M149.857,169.1a14.257,14.257,0,1,0,14.257,14.257A14.257,14.257,0,0,0,149.857,169.1" transform="translate(186.614 232.717)"/><path d="M183.757,169.1a14.257,14.257,0,1,0,14.257,14.257A14.257,14.257,0,0,0,183.757,169.1" transform="translate(233.267 232.717)"/><path d="M217.657,169.1a14.257,14.257,0,1,0,14.257,14.257A14.257,14.257,0,0,0,217.657,169.1" transform="translate(279.921 232.717)"/><path d="M14.257,203.2a14.257,14.257,0,1,0,14.257,14.257A14.257,14.257,0,0,0,14.257,203.2" transform="translate(0 279.646)"/><path d="M48.157,203.2a14.257,14.257,0,1,0,14.257,14.257A14.257,14.257,0,0,0,48.157,203.2" transform="translate(46.654 279.646)"/><path d="M82.057,203.2a14.257,14.257,0,1,0,14.257,14.257A14.257,14.257,0,0,0,82.057,203.2" transform="translate(93.307 279.646)"/><path d="M115.957,203.2a14.257,14.257,0,1,0,14.257,14.257A14.257,14.257,0,0,0,115.957,203.2" transform="translate(139.96 279.646)"/><path d="M149.857,203.2a14.257,14.257,0,1,0,14.257,14.257A14.257,14.257,0,0,0,149.857,203.2" transform="translate(186.614 279.646)"/><path d="M183.757,203.2a14.257,14.257,0,1,0,14.257,14.257A14.257,14.257,0,0,0,183.757,203.2" transform="translate(233.267 279.646)"/><path d="M217.657,203.2a14.257,14.257,0,1,0,14.257,14.257A14.257,14.257,0,0,0,217.657,203.2" transform="translate(279.921 279.646)"/><path d="M251.557,0a14.257,14.257,0,1,0,14.257,14.257A14.257,14.257,0,0,0,251.557,0" transform="translate(326.574)"/><path d="M285.457,0a14.257,14.257,0,1,0,14.257,14.257A14.257,14.257,0,0,0,285.457,0" transform="translate(373.228)"/><path d="M319.357,0a14.257,14.257,0,1,0,14.257,14.257A14.257,14.257,0,0,0,319.357,0" transform="translate(419.882)"/><path d="M353.257,0a14.257,14.257,0,1,0,14.257,14.257A14.257,14.257,0,0,0,353.257,0" transform="translate(466.535)"/><path d="M387.157,0a14.257,14.257,0,1,0,14.257,14.257A14.257,14.257,0,0,0,387.157,0" transform="translate(513.189)"/><path d="M421.157,0a14.257,14.257,0,1,0,14.257,14.257A14.257,14.257,0,0,0,421.157,0" transform="translate(559.98)"/><path d="M455.057,28.415A14.257,14.257,0,1,0,440.8,14.157a14.257,14.257,0,0,0,14.257,14.257" transform="translate(606.633 -0.138)"/><path d="M251.557,33.9a14.257,14.257,0,1,0,14.257,14.257A14.257,14.257,0,0,0,251.557,33.9" transform="translate(326.574 46.654)"/><path d="M285.457,33.9a14.257,14.257,0,1,0,14.257,14.257A14.257,14.257,0,0,0,285.457,33.9" transform="translate(373.228 46.654)"/><path d="M319.357,33.9a14.257,14.257,0,1,0,14.257,14.257A14.257,14.257,0,0,0,319.357,33.9" transform="translate(419.882 46.654)"/><path d="M353.257,33.9a14.257,14.257,0,1,0,14.257,14.257A14.257,14.257,0,0,0,353.257,33.9" transform="translate(466.535 46.654)"/><path d="M387.157,33.9a14.257,14.257,0,1,0,14.257,14.257A14.257,14.257,0,0,0,387.157,33.9" transform="translate(513.189 46.654)"/><path d="M421.157,33.9a14.257,14.257,0,1,0,14.257,14.257A14.257,14.257,0,0,0,421.157,33.9" transform="translate(559.98 46.654)"/><path d="M455.057,33.9a14.257,14.257,0,1,0,14.257,14.257A14.257,14.257,0,0,0,455.057,33.9" transform="translate(606.633 46.654)"/><path d="M251.557,67.6a14.257,14.257,0,1,0,14.257,14.257A14.257,14.257,0,0,0,251.557,67.6" transform="translate(326.574 93.032)"/><path d="M285.457,67.6a14.257,14.257,0,1,0,14.257,14.257A14.257,14.257,0,0,0,285.457,67.6" transform="translate(373.228 93.032)"/><path d="M319.357,67.6a14.257,14.257,0,1,0,14.257,14.257A14.257,14.257,0,0,0,319.357,67.6" transform="translate(419.882 93.032)"/><path d="M353.257,67.6a14.257,14.257,0,1,0,14.257,14.257A14.257,14.257,0,0,0,353.257,67.6" transform="translate(466.535 93.032)"/><path d="M387.157,67.6a14.257,14.257,0,1,0,14.257,14.257A14.257,14.257,0,0,0,387.157,67.6" transform="translate(513.189 93.032)"/><path d="M421.157,67.6a14.257,14.257,0,1,0,14.257,14.257A14.257,14.257,0,0,0,421.157,67.6" transform="translate(559.98 93.032)"/><path d="M455.057,67.6a14.257,14.257,0,1,0,14.257,14.257A14.257,14.257,0,0,0,455.057,67.6" transform="translate(606.633 93.032)"/><path d="M251.557,101.5a14.257,14.257,0,1,0,14.257,14.257A14.257,14.257,0,0,0,251.557,101.5" transform="translate(326.574 139.685)"/><path d="M285.457,101.5a14.257,14.257,0,1,0,14.257,14.257A14.257,14.257,0,0,0,285.457,101.5" transform="translate(373.228 139.685)"/><path d="M319.357,101.5a14.257,14.257,0,1,0,14.257,14.257A14.257,14.257,0,0,0,319.357,101.5" transform="translate(419.882 139.685)"/><path d="M353.257,101.5a14.257,14.257,0,1,0,14.257,14.257A14.257,14.257,0,0,0,353.257,101.5" transform="translate(466.535 139.685)"/><path d="M387.157,101.5a14.257,14.257,0,1,0,14.257,14.257A14.257,14.257,0,0,0,387.157,101.5" transform="translate(513.189 139.685)"/><path d="M421.157,101.5a14.257,14.257,0,1,0,14.257,14.257A14.257,14.257,0,0,0,421.157,101.5" transform="translate(559.98 139.685)"/><path d="M455.057,101.5a14.257,14.257,0,1,0,14.257,14.257A14.257,14.257,0,0,0,455.057,101.5" transform="translate(606.633 139.685)"/><path d="M251.557,135.4a14.257,14.257,0,1,0,14.257,14.257A14.257,14.257,0,0,0,251.557,135.4" transform="translate(326.574 186.339)"/><path d="M285.457,135.4a14.257,14.257,0,1,0,14.257,14.257A14.257,14.257,0,0,0,285.457,135.4" transform="translate(373.228 186.339)"/><path d="M319.357,135.4a14.257,14.257,0,1,0,14.257,14.257A14.257,14.257,0,0,0,319.357,135.4" transform="translate(419.882 186.339)"/><path d="M353.257,135.4a14.257,14.257,0,1,0,14.257,14.257A14.257,14.257,0,0,0,353.257,135.4" transform="translate(466.535 186.339)"/><path d="M387.157,135.4a14.257,14.257,0,1,0,14.257,14.257A14.257,14.257,0,0,0,387.157,135.4" transform="translate(513.189 186.339)"/><path d="M421.157,135.4a14.257,14.257,0,1,0,14.257,14.257A14.257,14.257,0,0,0,421.157,135.4" transform="translate(559.98 186.339)"/><path d="M455.057,135.4a14.257,14.257,0,1,0,14.257,14.257A14.257,14.257,0,0,0,455.057,135.4" transform="translate(606.633 186.339)"/><path d="M251.557,169.1a14.257,14.257,0,1,0,14.257,14.257A14.257,14.257,0,0,0,251.557,169.1" transform="translate(326.574 232.717)"/><path d="M285.457,169.1a14.257,14.257,0,1,0,14.257,14.257A14.257,14.257,0,0,0,285.457,169.1" transform="translate(373.228 232.717)"/><path d="M319.357,169.1a14.257,14.257,0,1,0,14.257,14.257A14.257,14.257,0,0,0,319.357,169.1" transform="translate(419.882 232.717)"/><path d="M353.257,169.1a14.257,14.257,0,1,0,14.257,14.257A14.257,14.257,0,0,0,353.257,169.1" transform="translate(466.535 232.717)"/><path d="M387.157,169.1a14.257,14.257,0,1,0,14.257,14.257A14.257,14.257,0,0,0,387.157,169.1" transform="translate(513.189 232.717)"/><path d="M421.157,169.1a14.257,14.257,0,1,0,14.257,14.257A14.257,14.257,0,0,0,421.157,169.1" transform="translate(559.98 232.717)"/><path d="M455.057,169.1a14.257,14.257,0,1,0,14.257,14.257A14.257,14.257,0,0,0,455.057,169.1" transform="translate(606.633 232.717)"/><path d="M251.557,203.2a14.257,14.257,0,1,0,14.257,14.257A14.257,14.257,0,0,0,251.557,203.2" transform="translate(326.574 279.646)"/><path d="M285.457,203.2a14.257,14.257,0,1,0,14.257,14.257A14.257,14.257,0,0,0,285.457,203.2" transform="translate(373.228 279.646)"/><path d="M319.357,203.2a14.257,14.257,0,1,0,14.257,14.257A14.257,14.257,0,0,0,319.357,203.2" transform="translate(419.882 279.646)"/><path d="M353.257,203.2a14.257,14.257,0,1,0,14.257,14.257A14.257,14.257,0,0,0,353.257,203.2" transform="translate(466.535 279.646)"/><path d="M387.157,203.2a14.257,14.257,0,1,0,14.257,14.257A14.257,14.257,0,0,0,387.157,203.2" transform="translate(513.189 279.646)"/><path d="M421.157,203.2a14.257,14.257,0,1,0,14.257,14.257A14.257,14.257,0,0,0,421.157,203.2" transform="translate(559.98 279.646)"/><path d="M455.057,203.2a14.257,14.257,0,1,0,14.257,14.257A14.257,14.257,0,0,0,455.057,203.2" transform="translate(606.633 279.646)"/></g></g></svg>